<svg width="44" height="44" viewBox="0 0 44 44" fill="none" xmlns="http://www.w3.org/2000/svg">
<path d="M12.7716 0C5.73798 0 0 5.73798 0 12.7716V31.2416C0 38.262 5.73798 44 12.7716 44H31.2416C38.262 44 44 38.262 44 31.2284V12.7716C44 5.73798 38.262 0 31.2284 0H12.7716ZM12.7716 3.38462H31.2284C36.4375 3.38462 40.6154 7.5625 40.6154 12.7716V31.2284C40.6154 36.4375 36.4375 40.6154 31.2416 40.6154H12.7716C7.5625 40.6154 3.38462 36.4375 3.38462 31.2416V12.7716C3.38462 7.5625 7.5625 3.38462 12.7716 3.38462ZM35.5385 6.76923C34.5998 6.76923 33.8462 7.52284 33.8462 8.46154C33.8462 9.40024 34.5998 10.1538 35.5385 10.1538C36.4772 10.1538 37.2308 9.40024 37.2308 8.46154C37.2308 7.52284 36.4772 6.76923 35.5385 6.76923ZM22 10.1538C15.482 10.1538 10.1538 15.482 10.1538 22C10.1538 28.518 15.482 33.8462 22 33.8462C28.518 33.8462 33.8462 28.518 33.8462 22C33.8462 15.482 28.518 10.1538 22 10.1538ZM22 13.5385C26.6935 13.5385 30.4615 17.3065 30.4615 22C30.4615 26.6935 26.6935 30.4615 22 30.4615C17.3065 30.4615 13.5385 26.6935 13.5385 22C13.5385 17.3065 17.3065 13.5385 22 13.5385Z" fill="white"/>
</svg>
