<svg width="44" height="44" viewBox="0 0 44 44" fill="none" xmlns="http://www.w3.org/2000/svg">
<path d="M5.94952 0C2.6839 0 0 2.6839 0 5.94952V38.0637C0 41.3161 2.6839 44 5.94952 44H38.0637C41.3161 44 44 41.3161 44 38.0637V5.94952C44 2.6839 41.3161 0 38.0637 0H5.94952ZM5.94952 3.38462H38.0637C39.4916 3.38462 40.6154 4.50841 40.6154 5.94952V38.0637C40.6154 39.4916 39.4916 40.6154 38.0637 40.6154H5.94952C4.50841 40.6154 3.38462 39.4916 3.38462 38.0637V5.94952C3.38462 4.50841 4.50841 3.38462 5.94952 3.38462ZM10.1538 6.76923C8.28966 6.76923 6.76923 8.28966 6.76923 10.1538C6.76923 12.018 8.28966 13.5385 10.1538 13.5385C12.018 13.5385 13.5385 12.018 13.5385 10.1538C13.5385 8.28966 12.018 6.76923 10.1538 6.76923ZM6.76923 16.9231V37.2308H13.5385V16.9231H6.76923ZM16.9231 16.9231V37.2308H23.6923V28.1611C23.6923 25.345 23.9567 22.8197 27.3413 22.8197C30.6731 22.8197 30.4615 25.8474 30.4615 28.3462V37.2308H37.2308V27.2091C37.2308 21.3918 36.0144 16.9231 29.4171 16.9231C26.244 16.9231 24.6442 18.1923 23.7716 19.8846H23.6923V16.9231H16.9231Z" fill="white"/>
</svg>
